<svg
  width="30"
  height="20"
  viewBox="0 0 30 20"
  fill="none"
  xmlns="http://www.w3.org/2000/svg"
>
  <path
    fill-rule="evenodd"
    clip-rule="evenodd"
    d="M7.8173 1.21612C8.30546 0.727967 9.09692 0.727967 9.58507 1.21612C10.0732 1.70428 10.0732 2.49573 9.58507 2.98389L3.81895 8.75H28.4514C29.1418 8.75 29.7014 9.30964 29.7014 10C29.7014 10.6904 29.1418 11.25 28.4514 11.25H3.93561L9.76841 17.0828C10.2566 17.5709 10.2566 18.3624 9.7684 18.8506C9.28025 19.3387 8.48879 19.3387 8.00064 18.8506L1.15064 12.0006L1.14801 11.9979C0.60478 11.4514 0.299868 10.7122 0.299868 9.94167C0.299868 9.17113 0.604776 8.43189 1.14801 7.88542L7.8173 1.21612Z"
    fill="#151515"
  />
</svg>
