<svg width="30" height="20" viewBox="0 0 30 20" fill="none" xmlns="http://www.w3.org/2000/svg">
<path fill-rule="evenodd" clip-rule="evenodd" d="M22.1837 1.21612C21.6955 0.727967 20.9041 0.727967 20.4159 1.21612C19.9277 1.70428 19.9277 2.49573 20.4159 2.98389L26.182 8.75H1.54956C0.859205 8.75 0.299561 9.30964 0.299561 10C0.299561 10.6904 0.859205 11.25 1.54956 11.25H26.0654L20.2326 17.0828C19.7444 17.5709 19.7444 18.3624 20.2326 18.8506C20.7207 19.3387 21.5122 19.3387 22.0003 18.8506L28.8503 12.0006L28.853 11.9979C29.3962 11.4514 29.7011 10.7122 29.7011 9.94167C29.7011 9.17113 29.3962 8.43189 28.853 7.88542L22.1837 1.21612Z" fill="#151515"/>
</svg>
