<svg
  width="22"
  height="22"
  viewBox="0 0 22 22"
  fill="none"
  xmlns="http://www.w3.org/2000/svg"
>
  <path
    fill-rule="evenodd"
    clip-rule="evenodd"
    d="M22 11C22 17.0751 17.0751 22 11 22C4.92487 22 0 17.0751 0 11C0 4.92487 4.92487 0 11 0C17.0751 0 22 4.92487 22 11ZM11 20C15.9706 20 20 15.9706 20 11C20 6.02944 15.9706 2 11 2C6.02944 2 2 6.02944 2 11C2 15.9706 6.02944 20 11 20Z"
    fill="#6A983C"
  />
  <path
    fill-rule="evenodd"
    clip-rule="evenodd"
    d="M14.0981 11.6339C14.5763 11.91 14.7402 12.5216 14.4641 12.9999C14.113 13.608 13.6081 14.113 13 14.464C12.3919 14.8151 11.7021 14.9999 11 14.9999C10.2978 14.9999 9.60805 14.8151 8.99998 14.464C8.3919 14.113 7.88695 13.608 7.53587 12.9999C7.25973 12.5216 7.42361 11.91 7.9019 11.6339C8.38019 11.3578 8.99178 11.5216 9.26793 11.9999C9.44346 12.304 9.69594 12.5564 9.99998 12.732C10.304 12.9075 10.6489 12.9999 11 12.9999C11.351 12.9999 11.6959 12.9075 12 12.732C12.304 12.5564 12.5565 12.304 12.732 11.9999C13.0082 11.5216 13.6198 11.3578 14.0981 11.6339Z"
    fill="#6A983C"
  />
  <path
    fill-rule="evenodd"
    clip-rule="evenodd"
    d="M8 6.75H7C6.30964 6.75 5.75 7.30964 5.75 8C5.75 8.69036 6.30964 9.25 7 9.25H8C8.69036 9.25 9.25 8.69036 9.25 8C9.25 7.30964 8.69036 6.75 8 6.75Z"
    fill="#6A983C"
  />
  <path
    fill-rule="evenodd"
    clip-rule="evenodd"
    d="M15 6.75H14C13.3096 6.75 12.75 7.30964 12.75 8C12.75 8.69036 13.3096 9.25 14 9.25H15C15.6904 9.25 16.25 8.69036 16.25 8C16.25 7.30964 15.6904 6.75 15 6.75Z"
    fill="#6A983C"
  />
</svg>
