<svg
  width="28"
  height="28"
  viewBox="0 0 28 28"
  fill="none"
  xmlns="http://www.w3.org/2000/svg"
>
  <path
    fill-rule="evenodd"
    clip-rule="evenodd"
    d="M3.11111 12.4444C3.11111 7.28979 7.28979 3.11111 12.4444 3.11111C17.5991 3.11111 21.7778 7.28979 21.7778 12.4444C21.7778 17.5991 17.5991 21.7778 12.4444 21.7778C7.28979 21.7778 3.11111 17.5991 3.11111 12.4444ZM12.4444 0C5.57157 0 0 5.57157 0 12.4444C0 19.3173 5.57157 24.8889 12.4444 24.8889C15.4057 24.8889 18.1253 23.8546 20.2619 22.1276C20.325 22.4025 20.4637 22.6636 20.6778 22.8777L25.3445 27.5444C25.952 28.1519 26.9369 28.1519 27.5444 27.5444C28.1519 26.9369 28.1519 25.952 27.5444 25.3445L22.8777 20.6778C22.6636 20.4637 22.4025 20.325 22.1276 20.2619C23.8546 18.1253 24.8889 15.4057 24.8889 12.4444C24.8889 5.57157 19.3173 0 12.4444 0Z"
    fill="#A9BE93"
  />
</svg>
