<svg
  width="16"
  height="19"
  viewBox="0 0 16 19"
  fill="none"
  xmlns="http://www.w3.org/2000/svg"
>
  <path
    fill-rule="evenodd"
    clip-rule="evenodd"
    d="M13.523 11.8337C13.1811 13.1095 12.4279 14.2368 11.38 15.0409C10.3321 15.8449 9.04823 16.2808 7.72743 16.2808C6.40662 16.2808 5.12272 15.8449 4.07486 15.0409C3.02699 14.2368 2.27372 13.1095 1.93187 11.8337L2.02863e-05 12.3513C0.455819 14.0524 1.46018 15.5555 2.85734 16.6276C4.25449 17.6997 5.96635 18.2808 7.72743 18.2808C9.4885 18.2808 11.2004 17.6997 12.5975 16.6276C13.9947 15.5555 14.999 14.0524 15.4548 12.3513L13.523 11.8337Z"
    fill="black"
  />
  <path
    fill-rule="evenodd"
    clip-rule="evenodd"
    d="M2.10266 4.49976L3.35205 6.06149L6.72736 3.36125L6.72736 10.2806C6.72736 10.8329 7.17507 11.2806 7.72736 11.2806C8.27964 11.2806 8.72736 10.8329 8.72736 10.2806L8.72736 3.36125L12.1027 6.06149L13.3521 4.49976L7.72736 -2.45863e-07L2.10266 4.49976Z"
    fill="black"
  />
</svg>
